C:\Users\u0150099\Documents\master_thesis\3dpredictsim\Polynomials\CP3_T0_scaled_MRI_v7_scaledMT_left\dummy_motion.mot
nRows=17
nColumns=32

name C:\Users\u0150099\Documents\master_thesis\3dpredictsim\Polynomials\CP3_T0_scaled_MRI_v7_scaledMT_left\dummy_motion.mot
datacolumns 32
datarows 17
range 25.0100000000 25.1700000000
endheader
time	pelvis_tilt	pelvis_list	pelvis_rotation	pelvis_tx	pelvis_ty	pelvis_tz	hip_flexion_r	hip_adduction_r	hip_rotation_r	knee_angle_r	ankle_angle_r	subtalar_angle_r	mtp_angle_r	hip_flexion_l	hip_adduction_l	hip_rotation_l	knee_angle_l	ankle_angle_l	subtalar_angle_l	mtp_angle_l	lumbar_extension	lumbar_bending	lumbar_rotation	arm_flex_r	arm_add_r	arm_rot_r	elbow_flex_r	arm_flex_l	arm_add_l	arm_rot_l	elbow_flex_l
       25.0100000000	        0.0000000000	        0.0000000000	        0.0000000000	        0.0000000000	        0.0000000000	        0.0000000000	        3.2945868492	      -13.3433963054	      -25.7574821127	      -57.0815813952	       -8.3891064940	       -0.5112062809	       12.7248672622	        0.0000000000	        0.0000000000	        0.0000000000	        0.0000000000	        0.0000000000	        0.0000000000	        0.0000000000	       26.1890992119	      -19.1572185704	       25.6511388591	        0.0000000000	        0.0000000000	        0.0000000000	        0.0000000000	        0.0000000000	        0.0000000000	        0.0000000000	        0.0000000000	
       25.0200000000	        0.0000000000	        0.0000000000	        0.0000000000	        0.0000000000	        0.0000000000	        0.0000000000	      -42.4932705147	       -6.6125339192	       -8.0783285682	       -2.9379429495	       22.6485890326	       25.8229528439	      -28.8680445495	        0.0000000000	        0.0000000000	        0.0000000000	        0.0000000000	        0.0000000000	        0.0000000000	        0.0000000000	      -16.7312941657	       17.4322949412	       -2.0747843405	        0.0000000000	        0.0000000000	        0.0000000000	        0.0000000000	        0.0000000000	        0.0000000000	        0.0000000000	        0.0000000000	
       25.0300000000	        0.0000000000	        0.0000000000	        0.0000000000	        0.0000000000	        0.0000000000	        0.0000000000	      -16.7138233797	       27.7573014649	       13.4574983750	      -67.2042326954	       -7.3198337606	       22.2731513084	       -9.8223501604	        0.0000000000	        0.0000000000	        0.0000000000	        0.0000000000	        0.0000000000	        0.0000000000	        0.0000000000	       -3.0981292664	      -14.3160565803	      -21.3087711955	        0.0000000000	        0.0000000000	        0.0000000000	        0.0000000000	        0.0000000000	        0.0000000000	        0.0000000000	        0.0000000000	
       25.0400000000	        0.0000000000	        0.0000000000	        0.0000000000	        0.0000000000	        0.0000000000	        0.0000000000	       19.7265892221	        1.2064347587	       14.5971921197	      -29.0746739160	      -29.7808278615	       11.2674872820	        8.0623278655	        0.0000000000	        0.0000000000	        0.0000000000	        0.0000000000	        0.0000000000	        0.0000000000	        0.0000000000	        5.0062218388	       -9.6948281268	      -12.3705961489	        0.0000000000	        0.0000000000	        0.0000000000	        0.0000000000	        0.0000000000	        0.0000000000	        0.0000000000	        0.0000000000	
       25.0500000000	        0.0000000000	        0.0000000000	        0.0000000000	        0.0000000000	        0.0000000000	        0.0000000000	       -3.3478833431	        1.9614864283	       -9.2996061808	      -10.7173999622	      -15.6613492242	       24.7553217946	      -25.7130685519	        0.0000000000	        0.0000000000	        0.0000000000	        0.0000000000	        0.0000000000	        0.0000000000	        0.0000000000	       -1.4928270798	      -29.7864613318	        4.2309243207	        0.0000000000	        0.0000000000	        0.0000000000	        0.0000000000	        0.0000000000	        0.0000000000	        0.0000000000	        0.0000000000	
       25.0600000000	        0.0000000000	        0.0000000000	        0.0000000000	        0.0000000000	        0.0000000000	        0.0000000000	      -41.3639094854	      -16.3285055435	        3.7935099756	       -5.4159872455	      -17.9065551395	      -26.4333769642	      -14.0272952582	        0.0000000000	        0.0000000000	        0.0000000000	        0.0000000000	        0.0000000000	        0.0000000000	        0.0000000000	       28.0661820537	       16.7328127272	        0.4722153735	        0.0000000000	        0.0000000000	        0.0000000000	        0.0000000000	        0.0000000000	        0.0000000000	        0.0000000000	        0.0000000000	
       25.0700000000	        0.0000000000	        0.0000000000	        0.0000000000	        0.0000000000	        0.0000000000	        0.0000000000	      -19.8444462880	      -12.3947609475	        3.5697914740	      -71.9982165176	       17.4993481044	        9.9292513945	       29.5782637816	        0.0000000000	        0.0000000000	        0.0000000000	        0.0000000000	        0.0000000000	        0.0000000000	        0.0000000000	       25.9348067294	       -3.4693424854	      -26.5748978619	        0.0000000000	        0.0000000000	        0.0000000000	        0.0000000000	        0.0000000000	        0.0000000000	        0.0000000000	        0.0000000000	
       25.0800000000	        0.0000000000	        0.0000000000	        0.0000000000	        0.0000000000	        0.0000000000	        0.0000000000	      -39.7055367410	       -3.1689031691	       20.5647691317	      -72.4900768483	       11.4789000461	        0.6559302401	      -12.8656689196	        0.0000000000	        0.0000000000	        0.0000000000	        0.0000000000	        0.0000000000	        0.0000000000	        0.0000000000	       20.4698974109	       -1.0991384727	       -9.9881122710	        0.0000000000	        0.0000000000	        0.0000000000	        0.0000000000	        0.0000000000	        0.0000000000	        0.0000000000	        0.0000000000	
       25.0900000000	        0.0000000000	        0.0000000000	        0.0000000000	        0.0000000000	        0.0000000000	        0.0000000000	       46.0327325612	        0.0974090367	        6.8873575330	      -72.0582521684	       10.6303584327	       17.3546236343	        8.9183094188	        0.0000000000	        0.0000000000	        0.0000000000	        0.0000000000	        0.0000000000	        0.0000000000	        0.0000000000	      -13.1623732669	      -23.6295251856	       13.8896741508	        0.0000000000	        0.0000000000	        0.0000000000	        0.0000000000	        0.0000000000	        0.0000000000	        0.0000000000	        0.0000000000	
       25.1000000000	        0.0000000000	        0.0000000000	        0.0000000000	        0.0000000000	        0.0000000000	        0.0000000000	      -19.6739915316	       -9.0519988288	      -20.4940310963	      -39.3713990268	      -19.0240579643	       18.9586067431	        7.3686663198	        0.0000000000	        0.0000000000	        0.0000000000	        0.0000000000	        0.0000000000	        0.0000000000	        0.0000000000	       26.2443148845	        0.3124433357	       25.9418811999	        0.0000000000	        0.0000000000	        0.0000000000	        0.0000000000	        0.0000000000	        0.0000000000	        0.0000000000	        0.0000000000	
       25.1100000000	        0.0000000000	        0.0000000000	        0.0000000000	        0.0000000000	        0.0000000000	        0.0000000000	      -17.8028782787	       27.7528609430	       29.6114757035	      -55.6104966424	      -27.6125540427	       23.9567601936	       14.7955614685	        0.0000000000	        0.0000000000	        0.0000000000	        0.0000000000	        0.0000000000	        0.0000000000	        0.0000000000	       18.2434508631	       -7.0319357305	       -7.9106513426	        0.0000000000	        0.0000000000	        0.0000000000	        0.0000000000	        0.0000000000	        0.0000000000	        0.0000000000	        0.0000000000	
       25.1200000000	        0.0000000000	        0.0000000000	        0.0000000000	        0.0000000000	        0.0000000000	        0.0000000000	      -26.2153243838	       -2.6728736101	      -22.8609812547	      -25.1146427913	       -2.7310564838	       17.8410805272	       37.8641491448	        0.0000000000	        0.0000000000	        0.0000000000	        0.0000000000	        0.0000000000	        0.0000000000	        0.0000000000	        5.2341901829	       11.3764215859	      -29.2153243551	        0.0000000000	        0.0000000000	        0.0000000000	        0.0000000000	        0.0000000000	        0.0000000000	        0.0000000000	        0.0000000000	
       25.1300000000	        0.0000000000	        0.0000000000	        0.0000000000	        0.0000000000	        0.0000000000	        0.0000000000	      -39.9733883265	        7.6874990191	       10.8014852712	      -55.9118601061	       -7.7940485496	       24.5524112842	      -26.4004314831	        0.0000000000	        0.0000000000	        0.0000000000	        0.0000000000	        0.0000000000	        0.0000000000	        0.0000000000	       25.3531908324	      -16.2134732996	       -3.3836718917	        0.0000000000	        0.0000000000	        0.0000000000	        0.0000000000	        0.0000000000	        0.0000000000	        0.0000000000	        0.0000000000	
       25.1400000000	        0.0000000000	        0.0000000000	        0.0000000000	        0.0000000000	        0.0000000000	        0.0000000000	      -26.3952054089	       27.1752452895	       20.8931716144	      -86.0289167667	       14.0027199710	      -12.7785122794	       32.7330129297	        0.0000000000	        0.0000000000	        0.0000000000	        0.0000000000	        0.0000000000	        0.0000000000	        0.0000000000	       -7.8256770234	       16.8774750295	        8.1290868424	        0.0000000000	        0.0000000000	        0.0000000000	        0.0000000000	        0.0000000000	        0.0000000000	        0.0000000000	        0.0000000000	
       25.1500000000	        0.0000000000	        0.0000000000	        0.0000000000	        0.0000000000	        0.0000000000	        0.0000000000	        1.0107973679	      -22.3461497274	       -0.6141260055	      -61.6801683423	       -1.3252346988	      -25.7836265389	       49.4671405510	        0.0000000000	        0.0000000000	        0.0000000000	        0.0000000000	        0.0000000000	        0.0000000000	        0.0000000000	       18.0407780122	       -2.1257776671	      -23.3143158869	        0.0000000000	        0.0000000000	        0.0000000000	        0.0000000000	        0.0000000000	        0.0000000000	        0.0000000000	        0.0000000000	
       25.1600000000	        0.0000000000	        0.0000000000	        0.0000000000	        0.0000000000	        0.0000000000	        0.0000000000	      -36.2436886229	       17.1323129897	      -17.2826188628	      -32.9096781637	      -16.6610391298	      -26.1908847528	      -10.3916661327	        0.0000000000	        0.0000000000	        0.0000000000	        0.0000000000	        0.0000000000	        0.0000000000	        0.0000000000	       25.3165385902	      -13.7922628516	       12.4387533336	        0.0000000000	        0.0000000000	        0.0000000000	        0.0000000000	        0.0000000000	        0.0000000000	        0.0000000000	        0.0000000000	
       25.1700000000	        0.0000000000	        0.0000000000	        0.0000000000	        0.0000000000	        0.0000000000	        0.0000000000	       20.6537835928	       19.6831757761	        3.7141190852	      -78.3718417015	       13.0432014127	      -14.8490977512	        1.8792825299	        0.0000000000	        0.0000000000	        0.0000000000	        0.0000000000	        0.0000000000	        0.0000000000	        0.0000000000	       -5.4921375366	       24.1871239580	       -0.1507502465	        0.0000000000	        0.0000000000	        0.0000000000	        0.0000000000	        0.0000000000	        0.0000000000	        0.0000000000	        0.0000000000	
